<svg width="10" height="10" viewBox="0 0 10 10" fill="none" xmlns="http://www.w3.org/2000/svg">
<g clip-path="url(#clip0_55_4149)">
<path d="M5 0C6.32608 0 7.59785 0.526784 8.53553 1.46447C9.47322 2.40215 10 3.67392 10 5C10 6.32608 9.47322 7.59785 8.53553 8.53553C7.59785 9.47322 6.32608 10 5 10C3.67392 10 2.40215 9.47322 1.46447 8.53553C0.526784 7.59785 0 6.32608 0 5C0 3.67392 0.526784 2.40215 1.46447 1.46447C2.40215 0.526784 3.67392 0 5 0ZM2.8125 4.6875C2.72962 4.6875 2.65013 4.72042 2.59153 4.77903C2.53292 4.83763 2.5 4.91712 2.5 5C2.5 5.08288 2.53292 5.16237 2.59153 5.22097C2.65013 5.27958 2.72962 5.3125 2.8125 5.3125L6.43313 5.3125L5.09125 6.65375C5.03257 6.71243 4.99961 6.79202 4.99961 6.875C4.99961 6.95798 5.03257 7.03757 5.09125 7.09625C5.14993 7.15493 5.22952 7.18789 5.3125 7.18789C5.39548 7.18789 5.47507 7.15493 5.53375 7.09625L7.40875 5.22125C7.43785 5.19222 7.46094 5.15774 7.4767 5.11977C7.49245 5.08181 7.50056 5.0411 7.50056 5C7.50056 4.9589 7.49245 4.91819 7.4767 4.88023C7.46094 4.84226 7.43785 4.80778 7.40875 4.77875L5.53375 2.90375C5.47507 2.84507 5.39548 2.81211 5.3125 2.81211C5.22952 2.81211 5.14993 2.84507 5.09125 2.90375C5.03257 2.96243 4.99961 3.04202 4.99961 3.125C4.99961 3.20798 5.03257 3.28757 5.09125 3.34625L6.43313 4.6875L2.8125 4.6875Z" fill="#000103"/>
</g>
<defs>
<clipPath id="clip0_55_4149">
<rect width="10" height="10" fill="white" transform="translate(0 10) rotate(-90)"/>
</clipPath>
</defs>
</svg>
