<svg width="13" height="17" viewBox="0 0 13 17" fill="none" xmlns="http://www.w3.org/2000/svg">
<path d="M12.778 0.585C12.8462 0.630637 12.9022 0.692369 12.9409 0.764746C12.9796 0.837123 12.9999 0.917918 13 1V8.5C13 8.59985 12.9701 8.69741 12.9141 8.78011C12.8581 8.86281 12.7787 8.92685 12.686 8.964L12.5 8.5L12.686 8.964L12.683 8.965L12.677 8.968L12.654 8.977C12.5225 9.02925 12.3902 9.07926 12.257 9.127C11.993 9.222 11.626 9.35 11.21 9.477C10.394 9.729 9.331 10 8.5 10C7.653 10 6.952 9.72 6.342 9.475L6.314 9.465C5.68 9.21 5.14 9 4.5 9C3.8 9 2.862 9.23 2.063 9.477C1.70526 9.58849 1.35078 9.71021 1 9.842V16C1 16.1326 0.947321 16.2598 0.853553 16.3536C0.759785 16.4473 0.632608 16.5 0.5 16.5C0.367392 16.5 0.240215 16.4473 0.146447 16.3536C0.0526785 16.2598 0 16.1326 0 16V1C0 0.867392 0.0526785 0.740215 0.146447 0.646447C0.240215 0.552678 0.367392 0.5 0.5 0.5C0.632608 0.5 0.759785 0.552678 0.853553 0.646447C0.947321 0.740215 1 0.867392 1 1V1.282C1.226 1.203 1.496 1.112 1.79 1.022C2.606 0.772 3.67 0.5 4.5 0.5C5.34 0.5 6.024 0.777 6.621 1.019L6.664 1.037C7.286 1.288 7.828 1.5 8.5 1.5C9.2 1.5 10.138 1.27 10.937 1.023C11.3923 0.880812 11.8423 0.72204 12.286 0.547L12.305 0.54L12.309 0.538H12.31L12.778 0.585ZM12 1.721C11.78 1.799 11.52 1.888 11.234 1.976C10.424 2.228 9.362 2.499 8.5 2.499C7.614 2.499 6.908 2.213 6.297 1.965L6.289 1.962C5.662 1.71 5.139 1.5 4.5 1.5C3.831 1.5 2.894 1.729 2.085 1.978C1.72011 2.09058 1.35831 2.21296 1 2.345V8.778C1.22 8.7 1.48 8.611 1.766 8.523C2.576 8.27 3.638 8 4.5 8C5.347 8 6.048 8.28 6.658 8.525L6.686 8.535C7.32 8.79 7.86 9 8.5 9C9.168 9 10.106 8.771 10.915 8.522C11.2799 8.40941 11.6417 8.28703 12 8.155V1.722V1.721Z" fill="black"/>
</svg>
