<svg width="14" height="15" viewBox="0 0 14 15" fill="none" xmlns="http://www.w3.org/2000/svg">
<path fill-rule="evenodd" clip-rule="evenodd" d="M13.491 0.5C9.893 0.504 6.837 2.483 4.656 4.5H0.5L0 5V8L0.147 8.354L1.138 9.345L1.139 9.354L5.139 13.354L5.148 13.355L6.147 14.354L6.5 14.5H9.5L10 14V9.846C12.019 7.668 13.996 4.613 13.992 1L13.491 0.5ZM1 5.5H3.643C2.83579 6.34746 2.09211 7.25325 1.418 8.21L1 7.794V5.5ZM6.7 13.5L6.28 13.077C7.23869 12.4067 8.1462 11.666 8.995 10.861V13.5H6.7ZM5.557 12.356L2.136 8.937C3.128 7.5 7.379 1.855 12.978 1.516C12.652 7.128 6.991 11.369 5.557 12.356ZM3 14.5V13.5H1V11.5H0V14.5H3ZM9.748 6.833C9.96893 6.50201 10.0493 6.09681 9.97149 5.70655C9.89366 5.31629 9.66399 4.97293 9.333 4.752C9.00201 4.53107 8.59681 4.45068 8.20655 4.52851C7.81629 4.60634 7.47293 4.83601 7.252 5.167C7.03107 5.49786 6.95063 5.90293 7.02836 6.2931C7.1061 6.68327 7.33564 7.02657 7.6665 7.2475C7.99736 7.46843 8.40243 7.54887 8.7926 7.47114C9.18277 7.3934 9.52607 7.16386 9.747 6.833H9.748Z" fill="black"/>
</svg>
