<svg width="20" height="20" viewBox="0 0 20 20" fill="none" xmlns="http://www.w3.org/2000/svg">
<path fill-rule="evenodd" clip-rule="evenodd" d="M6.05018 8.4038L9.89326 4.52093L13.7379 8.40696L15.9728 6.14643L9.89326 -0.00012207L3.81372 6.14485L6.05018 8.4038ZM0 9.99988L2.23562 7.74013L4.47124 9.99988L2.23562 12.2596L0 9.99988ZM9.89459 15.4806L6.05153 11.5962L3.81195 13.8536L3.81508 13.8567L9.89459 20.0001L15.9741 13.8536L15.9757 13.852L13.7392 11.5946L9.89459 15.4806ZM15.3159 10.0009L17.5515 7.74116L19.7872 10.0009L17.5515 12.2606L15.3159 10.0009ZM9.89657 7.70496L12.1643 9.99865H12.1658L12.1643 10.0002L9.89657 12.2939L7.62886 10.0034L7.62573 9.99865L7.62886 9.99549L8.02582 9.59426L8.21962 9.39995L9.89657 7.70496Z" fill="#F3BA2F"/>
</svg>
