<svg width="14" height="14" viewBox="0 0 14 14" fill="none" xmlns="http://www.w3.org/2000/svg">
<path d="M7 0C8.85652 0 10.637 0.737497 11.9497 2.05025C13.2625 3.36301 14 5.14348 14 7C14 8.85652 13.2625 10.637 11.9497 11.9497C10.637 13.2625 8.85652 14 7 14C5.14348 14 3.36301 13.2625 2.05025 11.9497C0.737498 10.637 0 8.85652 0 7C0 5.14348 0.737498 3.36301 2.05025 2.05025C3.36301 0.737497 5.14348 0 7 0ZM3.9375 6.5625C3.82147 6.5625 3.71019 6.60859 3.62814 6.69064C3.54609 6.77269 3.5 6.88397 3.5 7C3.5 7.11603 3.54609 7.22731 3.62814 7.30936C3.71019 7.39141 3.82147 7.4375 3.9375 7.4375L9.00638 7.4375L7.12775 9.31525C7.0456 9.3974 6.99945 9.50882 6.99945 9.625C6.99945 9.74118 7.0456 9.8526 7.12775 9.93475C7.2099 10.0169 7.32132 10.0631 7.4375 10.0631C7.55368 10.0631 7.6651 10.0169 7.74725 9.93475L10.3722 7.30975C10.413 7.26911 10.4453 7.22083 10.4674 7.16768C10.4894 7.11453 10.5008 7.05755 10.5008 7C10.5008 6.94245 10.4894 6.88547 10.4674 6.83232C10.4453 6.77917 10.413 6.73089 10.3722 6.69025L7.74725 4.06525C7.6651 3.9831 7.55368 3.93695 7.4375 3.93695C7.32132 3.93695 7.2099 3.9831 7.12775 4.06525C7.0456 4.1474 6.99945 4.25882 6.99945 4.375C6.99945 4.49118 7.0456 4.6026 7.12775 4.68475L9.00638 6.5625L3.9375 6.5625Z" fill="#F3BA2F"/>
</svg>
