<svg width="14" height="14" viewBox="0 0 14 14" fill="none" xmlns="http://www.w3.org/2000/svg">
<path d="M5.05714 2.80832C3.57649 4.46956 2.56036 6.85623 2.46601 7.08112L0.825682 6.37745C0.353907 6.17433 0.237778 5.55771 0.600682 5.195L2.78536 3.01145C3.12649 2.67049 3.62004 2.51815 4.09908 2.61246L5.05714 2.80832ZM6.1386 10.1787C6.35634 10.3963 6.67569 10.4544 6.9515 10.3238C7.79344 9.93207 9.6007 9.01077 10.7693 7.84282C14.1007 4.51309 14.1297 1.79997 13.9338 0.639283C13.9081 0.49671 13.8394 0.365398 13.7369 0.262962C13.6344 0.160526 13.503 0.0918662 13.3604 0.0661923C12.1991 -0.129674 9.48457 -0.100657 6.15311 3.22908C4.98456 4.39702 4.07004 6.20335 3.67085 7.04485C3.5402 7.32051 3.60553 7.64696 3.81601 7.85733L6.1386 10.1787ZM11.1975 8.94548C9.53538 10.4254 7.14747 11.441 6.92247 11.5353L7.6265 13.1747C7.82973 13.6463 8.44667 13.7623 8.80957 13.3996L10.9943 11.2161C11.3354 10.8751 11.4878 10.3818 11.3934 9.90305L11.1975 8.94548ZM4.87569 10.8316C4.94607 11.1829 4.92857 11.5462 4.82475 11.8892C4.72092 12.2321 4.53398 12.5441 4.28053 12.7975C3.72166 13.3561 1.98697 13.7696 0.861973 13.9872C0.361165 14.0815 -0.0815778 13.639 0.0127773 13.1385C0.23052 12.0141 0.636972 10.2803 1.2031 9.72169C1.45663 9.46836 1.76882 9.28152 2.11194 9.17775C2.45507 9.07398 2.81853 9.05649 3.17004 9.12684C4.01924 9.28643 4.71601 9.98285 4.87569 10.8316ZM7.82247 4.73072C7.82247 3.93274 8.4757 3.27986 9.27409 3.27986C10.0725 3.27986 10.7257 3.93274 10.7257 4.73072C10.7257 5.52869 10.0725 6.18158 9.27409 6.18158C8.4757 6.18158 7.82247 5.52869 7.82247 4.73072Z" fill="white"/>
</svg>
