<svg width="20" height="20" viewBox="0 0 20 20" fill="none" xmlns="http://www.w3.org/2000/svg">
<g clip-path="url(#clip0_55_4611)">
<path d="M10.0263 10L7.49967 8.21667V11.7833L10.0263 10ZM6.24967 14.6125C6.13917 14.6125 6.03319 14.5686 5.95505 14.4905C5.87691 14.4123 5.83301 14.3063 5.83301 14.1958V5.80417C5.83297 5.72782 5.8539 5.65292 5.89353 5.58767C5.93316 5.52241 5.98996 5.46929 6.05772 5.43412C6.12549 5.39895 6.20162 5.38307 6.27779 5.38822C6.35397 5.39337 6.42726 5.41936 6.48967 5.46333L12.4338 9.66C12.4882 9.6985 12.5325 9.74946 12.5631 9.80862C12.5937 9.86777 12.6097 9.9334 12.6097 10C12.6097 10.0666 12.5937 10.1322 12.5631 10.1914C12.5325 10.2505 12.4882 10.3015 12.4338 10.34L6.48967 14.5367C6.4194 14.5861 6.33558 14.6126 6.24967 14.6125ZM13.333 5.83333C13.333 5.61232 13.4208 5.40036 13.5771 5.24408C13.7334 5.0878 13.9453 5 14.1663 5C14.3874 5 14.5993 5.0878 14.7556 5.24408C14.9119 5.40036 14.9997 5.61232 14.9997 5.83333V14.1667C14.9997 14.3877 14.9119 14.5996 14.7556 14.7559C14.5993 14.9122 14.3874 15 14.1663 15C13.9453 15 13.7334 14.9122 13.5771 14.7559C13.4208 14.5996 13.333 14.3877 13.333 14.1667V5.83333Z" fill="#0B246A"/>
</g>
<defs>
<clipPath id="clip0_55_4611">
<rect width="20" height="20" fill="white"/>
</clipPath>
</defs>
</svg>
