<svg width="196" height="50" viewBox="0 0 196 50" fill="none" xmlns="http://www.w3.org/2000/svg">
<rect y="2" width="53" height="46" rx="8" fill="#F3BA2F"/>
<path d="M6.98 24.658C6.98 20.852 7.618 17.882 8.894 15.748C10.192 13.592 12.414 12.514 15.56 12.514C18.706 12.514 20.917 13.592 22.193 15.748C23.491 17.882 24.14 20.852 24.14 24.658C24.14 28.508 23.491 31.522 22.193 33.7C20.917 35.856 18.706 36.934 15.56 36.934C12.414 36.934 10.192 35.856 8.894 33.7C7.618 31.522 6.98 28.508 6.98 24.658ZM20.444 24.658C20.444 22.876 20.323 21.369 20.081 20.137C19.861 18.905 19.399 17.904 18.695 17.134C17.991 16.342 16.946 15.946 15.56 15.946C14.174 15.946 13.129 16.342 12.425 17.134C11.721 17.904 11.248 18.905 11.006 20.137C10.786 21.369 10.676 22.876 10.676 24.658C10.676 26.506 10.786 28.057 11.006 29.311C11.226 30.565 11.688 31.577 12.392 32.347C13.118 33.117 14.174 33.502 15.56 33.502C16.946 33.502 17.991 33.117 18.695 32.347C19.421 31.577 19.894 30.565 20.114 29.311C20.334 28.057 20.444 26.506 20.444 24.658ZM43.6306 16.177H32.5756V22.744C33.0376 22.128 33.7196 21.611 34.6216 21.193C35.5456 20.775 36.5246 20.566 37.5586 20.566C39.4066 20.566 40.9026 20.962 42.0466 21.754C43.2126 22.546 44.0376 23.547 44.5216 24.757C45.0276 25.967 45.2806 27.243 45.2806 28.585C45.2806 30.213 44.9616 31.665 44.3236 32.941C43.7076 34.195 42.7726 35.185 41.5186 35.911C40.2866 36.637 38.7686 37 36.9646 37C34.5666 37 32.6416 36.406 31.1896 35.218C29.7376 34.03 28.8686 32.457 28.5826 30.499H32.2456C32.4876 31.533 33.0266 32.358 33.8626 32.974C34.6986 33.568 35.7436 33.865 36.9976 33.865C38.5596 33.865 39.7256 33.392 40.4956 32.446C41.2876 31.5 41.6836 30.246 41.6836 28.684C41.6836 27.1 41.2876 25.89 40.4956 25.054C39.7036 24.196 38.5376 23.767 36.9976 23.767C35.9196 23.767 35.0066 24.042 34.2586 24.592C33.5326 25.12 33.0046 25.846 32.6746 26.77H29.1106V12.877H43.6306V16.177Z" fill="black"/>
<rect x="70" y="2" width="53" height="46" rx="8" fill="#F3BA2F"/>
<path d="M80.059 31.885C82.171 30.059 83.832 28.563 85.042 27.397C86.274 26.209 87.297 24.977 88.111 23.701C88.925 22.425 89.332 21.149 89.332 19.873C89.332 18.553 89.013 17.519 88.375 16.771C87.759 16.023 86.78 15.649 85.438 15.649C84.14 15.649 83.128 16.067 82.402 16.903C81.698 17.717 81.324 18.817 81.28 20.203H77.65C77.716 17.695 78.464 15.781 79.894 14.461C81.346 13.119 83.183 12.448 85.405 12.448C87.803 12.448 89.673 13.108 91.015 14.428C92.379 15.748 93.061 17.508 93.061 19.708C93.061 21.292 92.654 22.821 91.84 24.295C91.048 25.747 90.091 27.056 88.969 28.222C87.869 29.366 86.461 30.697 84.745 32.215L83.26 33.535H93.721V36.67H77.683V33.931L80.059 31.885ZM101.085 24.427C98.7969 23.283 97.6529 21.479 97.6529 19.015C97.6529 17.827 97.9499 16.738 98.5439 15.748C99.1379 14.758 100.029 13.977 101.217 13.405C102.405 12.811 103.857 12.514 105.573 12.514C107.267 12.514 108.708 12.811 109.896 13.405C111.106 13.977 112.008 14.758 112.602 15.748C113.196 16.738 113.493 17.827 113.493 19.015C113.493 20.247 113.174 21.336 112.536 22.282C111.92 23.206 111.095 23.921 110.061 24.427C111.315 24.889 112.305 25.648 113.031 26.704C113.757 27.738 114.12 28.959 114.12 30.367C114.12 31.797 113.757 33.062 113.031 34.162C112.305 35.262 111.293 36.109 109.995 36.703C108.697 37.297 107.223 37.594 105.573 37.594C103.923 37.594 102.449 37.297 101.151 36.703C99.8749 36.109 98.8739 35.262 98.1479 34.162C97.4219 33.062 97.0589 31.797 97.0589 30.367C97.0589 28.937 97.4219 27.705 98.1479 26.671C98.8739 25.637 99.8529 24.889 101.085 24.427ZM109.896 19.477C109.896 18.245 109.511 17.299 108.741 16.639C107.971 15.979 106.915 15.649 105.573 15.649C104.253 15.649 103.208 15.979 102.438 16.639C101.668 17.299 101.283 18.256 101.283 19.51C101.283 20.61 101.679 21.512 102.471 22.216C103.285 22.898 104.319 23.239 105.573 23.239C106.827 23.239 107.861 22.887 108.675 22.183C109.489 21.479 109.896 20.577 109.896 19.477ZM105.573 26.077C104.121 26.077 102.933 26.44 102.009 27.166C101.107 27.87 100.656 28.893 100.656 30.235C100.656 31.489 101.096 32.512 101.976 33.304C102.856 34.074 104.055 34.459 105.573 34.459C107.069 34.459 108.246 34.063 109.104 33.271C109.984 32.479 110.424 31.467 110.424 30.235C110.424 28.915 109.973 27.892 109.071 27.166C108.191 26.44 107.025 26.077 105.573 26.077Z" fill="black"/>
<rect x="143" y="2" width="53" height="46" rx="8" fill="#F3BA2F"/>
<path d="M150.914 18.883C151.046 16.837 151.827 15.242 153.257 14.098C154.709 12.954 156.557 12.382 158.801 12.382C160.341 12.382 161.672 12.657 162.794 13.207C163.916 13.757 164.763 14.505 165.335 15.451C165.907 16.397 166.193 17.464 166.193 18.652C166.193 20.016 165.83 21.182 165.104 22.15C164.378 23.118 163.509 23.767 162.497 24.097V24.229C163.795 24.625 164.807 25.351 165.533 26.407C166.259 27.441 166.622 28.772 166.622 30.4C166.622 31.698 166.325 32.853 165.731 33.865C165.137 34.877 164.257 35.68 163.091 36.274C161.925 36.846 160.528 37.132 158.9 37.132C156.524 37.132 154.566 36.527 153.026 35.317C151.508 34.085 150.694 32.325 150.584 30.037H154.214C154.302 31.203 154.753 32.16 155.567 32.908C156.381 33.634 157.481 33.997 158.867 33.997C160.209 33.997 161.243 33.634 161.969 32.908C162.695 32.16 163.058 31.203 163.058 30.037C163.058 28.497 162.563 27.408 161.573 26.77C160.605 26.11 159.109 25.78 157.085 25.78H156.227V22.678H157.118C158.9 22.656 160.253 22.359 161.177 21.787C162.123 21.215 162.596 20.313 162.596 19.081C162.596 18.025 162.255 17.189 161.573 16.573C160.891 15.935 159.923 15.616 158.669 15.616C157.437 15.616 156.48 15.935 155.798 16.573C155.116 17.189 154.709 17.959 154.577 18.883H150.914ZM186.084 16.177H175.029V22.744C175.491 22.128 176.173 21.611 177.075 21.193C177.999 20.775 178.978 20.566 180.012 20.566C181.86 20.566 183.356 20.962 184.5 21.754C185.666 22.546 186.491 23.547 186.975 24.757C187.481 25.967 187.734 27.243 187.734 28.585C187.734 30.213 187.415 31.665 186.777 32.941C186.161 34.195 185.226 35.185 183.972 35.911C182.74 36.637 181.222 37 179.418 37C177.02 37 175.095 36.406 173.643 35.218C172.191 34.03 171.322 32.457 171.036 30.499H174.699C174.941 31.533 175.48 32.358 176.316 32.974C177.152 33.568 178.197 33.865 179.451 33.865C181.013 33.865 182.179 33.392 182.949 32.446C183.741 31.5 184.137 30.246 184.137 28.684C184.137 27.1 183.741 25.89 182.949 25.054C182.157 24.196 180.991 23.767 179.451 23.767C178.373 23.767 177.46 24.042 176.712 24.592C175.986 25.12 175.458 25.846 175.128 26.77H171.564V12.877H186.084V16.177Z" fill="black"/>
<path d="M61.541 33.147C61.107 33.147 60.743 33 60.449 32.706C60.155 32.412 60.008 32.048 60.008 31.614C60.008 31.18 60.155 30.816 60.449 30.522C60.743 30.228 61.107 30.081 61.541 30.081C61.961 30.081 62.318 30.228 62.612 30.522C62.906 30.816 63.053 31.18 63.053 31.614C63.053 32.048 62.906 32.412 62.612 32.706C62.318 33 61.961 33.147 61.541 33.147ZM61.541 24.327C61.107 24.327 60.743 24.18 60.449 23.886C60.155 23.592 60.008 23.228 60.008 22.794C60.008 22.36 60.155 21.996 60.449 21.702C60.743 21.408 61.107 21.261 61.541 21.261C61.961 21.261 62.318 21.408 62.612 21.702C62.906 21.996 63.053 22.36 63.053 22.794C63.053 23.228 62.906 23.592 62.612 23.886C62.318 24.18 61.961 24.327 61.541 24.327Z" fill="white"/>
<path d="M133.541 33.147C133.107 33.147 132.743 33 132.449 32.706C132.155 32.412 132.008 32.048 132.008 31.614C132.008 31.18 132.155 30.816 132.449 30.522C132.743 30.228 133.107 30.081 133.541 30.081C133.961 30.081 134.318 30.228 134.612 30.522C134.906 30.816 135.053 31.18 135.053 31.614C135.053 32.048 134.906 32.412 134.612 32.706C134.318 33 133.961 33.147 133.541 33.147ZM133.541 24.327C133.107 24.327 132.743 24.18 132.449 23.886C132.155 23.592 132.008 23.228 132.008 22.794C132.008 22.36 132.155 21.996 132.449 21.702C132.743 21.408 133.107 21.261 133.541 21.261C133.961 21.261 134.318 21.408 134.612 21.702C134.906 21.996 135.053 22.36 135.053 22.794C135.053 23.228 134.906 23.592 134.612 23.886C134.318 24.18 133.961 24.327 133.541 24.327Z" fill="white"/>
</svg>
