<svg width="463" height="463" viewBox="0 0 463 463" fill="none" xmlns="http://www.w3.org/2000/svg">
<path d="M90.6017 323.001C70.2955 291.732 60.9677 254.597 64.0876 217.444C67.2074 180.29 82.5976 145.231 107.834 117.786L231.498 231.501L90.6017 323.001Z" fill="#DC385D"/>
<path d="M107.834 117.786C128.199 95.6394 154.138 79.3679 182.941 70.6718C211.744 61.9757 242.354 61.1742 271.572 68.3509L231.498 231.501L107.834 117.786Z" fill="#AE1F83"/>
<path d="M268.146 67.5475C302.77 75.2868 334.055 93.7886 357.517 120.401L231.498 231.501L268.146 67.5475Z" fill="#7D2D9A"/>
<path d="M355.163 117.786C369.495 133.373 380.752 151.528 388.34 171.296L231.498 231.501L355.163 117.786Z" fill="#521C96"/>
<path d="M387.045 168.024C391.036 177.805 394.096 187.94 396.184 198.295L231.498 231.501L387.045 168.024Z" fill="#6158C5"/>
<path d="M396.067 197.72C397.483 204.616 398.463 211.594 399.003 218.613L231.498 231.501L396.067 197.72Z" fill="#899EE7"/>
<path d="M398.957 218.028C399.522 225.045 399.645 232.09 399.325 239.122L231.498 231.501L398.957 218.028Z" fill="#FFCF61"/>
<path d="M399.415 236.779C398.75 257.942 394.09 278.79 385.681 298.222L231.498 231.501L399.415 236.779Z" fill="#FF9055"/>
<path d="M387.045 294.979C371.587 332.856 342.84 363.791 306.197 381.981C269.553 400.171 227.532 404.365 188.016 393.777L231.498 231.501L387.045 294.979Z" fill="#FF665B"/>
<path d="M301.966 384.008C264.829 401.168 222.707 404.187 183.503 392.5C144.298 380.812 110.705 355.221 89.0263 320.528L231.498 231.501L301.966 384.008Z" fill="#DC385D"/>
</svg>
