<svg width="334" height="315" viewBox="0 0 334 315" fill="none" xmlns="http://www.w3.org/2000/svg">
<circle cx="7" cy="17" r="7" fill="#899EE6"/>
<path d="M30.078 22H31.352V14.762L34.586 22H35.482L38.702 14.776V22H39.976V12.312H38.618L35.034 20.32L31.45 12.312H30.078V22ZM41.6606 18.136C41.6606 20.516 43.2426 22.126 45.2866 22.126C46.7006 22.126 47.6946 21.398 48.1566 20.572V22H49.4446V14.328H48.1566V15.728C47.7086 14.93 46.7286 14.202 45.3006 14.202C43.2426 14.202 41.6606 15.742 41.6606 18.136ZM48.1566 18.15C48.1566 19.956 46.9526 21.006 45.5526 21.006C44.1526 21.006 42.9626 19.942 42.9626 18.136C42.9626 16.33 44.1526 15.308 45.5526 15.308C46.9526 15.308 48.1566 16.372 48.1566 18.15ZM51.8775 19.9C51.8775 21.44 52.6475 22 54.0055 22H55.1535V20.922H54.2155C53.4315 20.922 53.1515 20.656 53.1515 19.9V15.378H55.1535V14.328H53.1515V12.396H51.8775V14.328H50.8835V15.378H51.8775V19.9ZM56.2211 18.15C56.2211 20.586 57.7751 22.126 59.9591 22.126C61.8631 22.126 63.1091 21.062 63.5011 19.536H62.1291C61.8491 20.502 61.0931 21.048 59.9591 21.048C58.5591 21.048 57.5231 20.054 57.5231 18.15C57.5231 16.274 58.5591 15.28 59.9591 15.28C61.0931 15.28 61.8631 15.868 62.1291 16.792H63.5011C63.1091 15.182 61.8631 14.202 59.9591 14.202C57.7751 14.202 56.2211 15.742 56.2211 18.15ZM65.201 22H66.475V17.758C66.475 16.106 67.371 15.294 68.673 15.294C69.961 15.294 70.815 16.092 70.815 17.66V22H72.075V17.478C72.075 15.28 70.717 14.188 69.009 14.188C67.931 14.188 66.979 14.622 66.475 15.434V11.64H65.201V22ZM77.4181 15.28C78.7341 15.28 79.8541 16.106 79.8401 17.604H74.9961C75.1361 16.106 76.1721 15.28 77.4181 15.28ZM81.0021 19.634H79.6301C79.3501 20.46 78.6221 21.048 77.4741 21.048C76.1721 21.048 75.0801 20.194 74.9821 18.64H81.1141C81.1421 18.374 81.1561 18.15 81.1561 17.87C81.1561 15.77 79.7001 14.202 77.4741 14.202C75.2341 14.202 73.6801 15.728 73.6801 18.15C73.6801 20.586 75.2901 22.126 77.4741 22.126C79.3781 22.126 80.6101 21.034 81.0021 19.634ZM88.3538 19.914C88.2978 17.17 83.8458 18.164 83.8458 16.344C83.8458 15.728 84.4058 15.28 85.3438 15.28C86.3658 15.28 86.9538 15.84 87.0098 16.61H88.2838C88.1998 15.112 87.0798 14.202 85.3858 14.202C83.6778 14.202 82.5718 15.168 82.5718 16.344C82.5718 19.2 87.1078 18.206 87.1078 19.914C87.1078 20.544 86.5478 21.048 85.5398 21.048C84.4618 21.048 83.8038 20.488 83.7338 19.746H82.4178C82.5018 21.146 83.7618 22.126 85.5538 22.126C87.2478 22.126 88.3538 21.174 88.3538 19.914ZM94.1226 22H95.3966V15.378H97.0066V14.328H95.3966V13.782C95.3966 12.788 95.7746 12.368 96.9226 12.368V11.304C94.9626 11.304 94.1226 12.074 94.1226 13.782V14.328H93.1286V15.378H94.1226V22ZM98.4921 22H99.7661V14.328H98.4921V22ZM99.1501 13.082C99.6121 13.082 99.9901 12.704 99.9901 12.214C99.9901 11.724 99.6121 11.346 99.1501 11.346C98.6601 11.346 98.2821 11.724 98.2821 12.214C98.2821 12.704 98.6601 13.082 99.1501 13.082ZM103.211 17.828C103.211 16.05 104.135 15.504 105.353 15.504H105.689V14.188C104.471 14.188 103.645 14.72 103.211 15.574V14.328H101.937V22H103.211V17.828ZM112.676 19.914C112.62 17.17 108.168 18.164 108.168 16.344C108.168 15.728 108.728 15.28 109.666 15.28C110.688 15.28 111.276 15.84 111.332 16.61H112.606C112.522 15.112 111.402 14.202 109.708 14.202C108 14.202 106.894 15.168 106.894 16.344C106.894 19.2 111.43 18.206 111.43 19.914C111.43 20.544 110.87 21.048 109.862 21.048C108.784 21.048 108.126 20.488 108.056 19.746H106.74C106.824 21.146 108.084 22.126 109.876 22.126C111.57 22.126 112.676 21.174 112.676 19.914ZM114.754 19.9C114.754 21.44 115.524 22 116.882 22H118.03V20.922H117.092C116.308 20.922 116.028 20.656 116.028 19.9V15.378H118.03V14.328H116.028V12.396H114.754V14.328H113.76V15.378H114.754V19.9ZM124.105 22H125.393V11.878H122.761V13.04H124.105V22ZM30.078 57H31.352V49.762L34.586 57H35.482L38.702 49.776V57H39.976V47.312H38.618L35.034 55.32L31.45 47.312H30.078V57ZM41.6606 53.136C41.6606 55.516 43.2426 57.126 45.2866 57.126C46.7006 57.126 47.6946 56.398 48.1566 55.572V57H49.4446V49.328H48.1566V50.728C47.7086 49.93 46.7286 49.202 45.3006 49.202C43.2426 49.202 41.6606 50.742 41.6606 53.136ZM48.1566 53.15C48.1566 54.956 46.9526 56.006 45.5526 56.006C44.1526 56.006 42.9626 54.942 42.9626 53.136C42.9626 51.33 44.1526 50.308 45.5526 50.308C46.9526 50.308 48.1566 51.372 48.1566 53.15ZM51.8775 54.9C51.8775 56.44 52.6475 57 54.0055 57H55.1535V55.922H54.2155C53.4315 55.922 53.1515 55.656 53.1515 54.9V50.378H55.1535V49.328H53.1515V47.396H51.8775V49.328H50.8835V50.378H51.8775V54.9ZM56.2211 53.15C56.2211 55.586 57.7751 57.126 59.9591 57.126C61.8631 57.126 63.1091 56.062 63.5011 54.536H62.1291C61.8491 55.502 61.0931 56.048 59.9591 56.048C58.5591 56.048 57.5231 55.054 57.5231 53.15C57.5231 51.274 58.5591 50.28 59.9591 50.28C61.0931 50.28 61.8631 50.868 62.1291 51.792H63.5011C63.1091 50.182 61.8631 49.202 59.9591 49.202C57.7751 49.202 56.2211 50.742 56.2211 53.15ZM65.201 57H66.475V52.758C66.475 51.106 67.371 50.294 68.673 50.294C69.961 50.294 70.815 51.092 70.815 52.66V57H72.075V52.478C72.075 50.28 70.717 49.188 69.009 49.188C67.931 49.188 66.979 49.622 66.475 50.434V46.64H65.201V57ZM77.4181 50.28C78.7341 50.28 79.8541 51.106 79.8401 52.604H74.9961C75.1361 51.106 76.1721 50.28 77.4181 50.28ZM81.0021 54.634H79.6301C79.3501 55.46 78.6221 56.048 77.4741 56.048C76.1721 56.048 75.0801 55.194 74.9821 53.64H81.1141C81.1421 53.374 81.1561 53.15 81.1561 52.87C81.1561 50.77 79.7001 49.202 77.4741 49.202C75.2341 49.202 73.6801 50.728 73.6801 53.15C73.6801 55.586 75.2901 57.126 77.4741 57.126C79.3781 57.126 80.6101 56.034 81.0021 54.634ZM88.3538 54.914C88.2978 52.17 83.8458 53.164 83.8458 51.344C83.8458 50.728 84.4058 50.28 85.3438 50.28C86.3658 50.28 86.9538 50.84 87.0098 51.61H88.2838C88.1998 50.112 87.0798 49.202 85.3858 49.202C83.6778 49.202 82.5718 50.168 82.5718 51.344C82.5718 54.2 87.1078 53.206 87.1078 54.914C87.1078 55.544 86.5478 56.048 85.5398 56.048C84.4618 56.048 83.8038 55.488 83.7338 54.746H82.4178C82.5018 56.146 83.7618 57.126 85.5538 57.126C87.2478 57.126 88.3538 56.174 88.3538 54.914ZM94.1226 57H95.3966V50.378H97.0066V49.328H95.3966V48.782C95.3966 47.788 95.7746 47.368 96.9226 47.368V46.304C94.9626 46.304 94.1226 47.074 94.1226 48.782V49.328H93.1286V50.378H94.1226V57ZM98.4921 57H99.7661V49.328H98.4921V57ZM99.1501 48.082C99.6121 48.082 99.9901 47.704 99.9901 47.214C99.9901 46.724 99.6121 46.346 99.1501 46.346C98.6601 46.346 98.2821 46.724 98.2821 47.214C98.2821 47.704 98.6601 48.082 99.1501 48.082ZM103.211 52.828C103.211 51.05 104.135 50.504 105.353 50.504H105.689V49.188C104.471 49.188 103.645 49.72 103.211 50.574V49.328H101.937V57H103.211V52.828ZM112.676 54.914C112.62 52.17 108.168 53.164 108.168 51.344C108.168 50.728 108.728 50.28 109.666 50.28C110.688 50.28 111.276 50.84 111.332 51.61H112.606C112.522 50.112 111.402 49.202 109.708 49.202C108 49.202 106.894 50.168 106.894 51.344C106.894 54.2 111.43 53.206 111.43 54.914C111.43 55.544 110.87 56.048 109.862 56.048C108.784 56.048 108.126 55.488 108.056 54.746H106.74C106.824 56.146 108.084 57.126 109.876 57.126C111.57 57.126 112.676 56.174 112.676 54.914ZM114.754 54.9C114.754 56.44 115.524 57 116.882 57H118.03V55.922H117.092C116.308 55.922 116.028 55.656 116.028 54.9V50.378H118.03V49.328H116.028V47.396H114.754V49.328H113.76V50.378H114.754V54.9ZM122.943 56.888H129.677V55.824H124.861C126.667 54.354 129.383 52.212 129.383 49.692C129.383 47.816 128.151 46.696 126.247 46.696C124.427 46.696 123.069 47.816 122.985 49.972H124.217C124.273 48.698 124.945 47.788 126.261 47.788C127.633 47.788 128.123 48.628 128.123 49.748C128.123 51.82 125.603 53.836 122.943 55.978V56.888ZM30.078 92H31.352V84.762L34.586 92H35.482L38.702 84.776V92H39.976V82.312H38.618L35.034 90.32L31.45 82.312H30.078V92ZM41.6606 88.136C41.6606 90.516 43.2426 92.126 45.2866 92.126C46.7006 92.126 47.6946 91.398 48.1566 90.572V92H49.4446V84.328H48.1566V85.728C47.7086 84.93 46.7286 84.202 45.3006 84.202C43.2426 84.202 41.6606 85.742 41.6606 88.136ZM48.1566 88.15C48.1566 89.956 46.9526 91.006 45.5526 91.006C44.1526 91.006 42.9626 89.942 42.9626 88.136C42.9626 86.33 44.1526 85.308 45.5526 85.308C46.9526 85.308 48.1566 86.372 48.1566 88.15ZM51.8775 89.9C51.8775 91.44 52.6475 92 54.0055 92H55.1535V90.922H54.2155C53.4315 90.922 53.1515 90.656 53.1515 89.9V85.378H55.1535V84.328H53.1515V82.396H51.8775V84.328H50.8835V85.378H51.8775V89.9ZM56.2211 88.15C56.2211 90.586 57.7751 92.126 59.9591 92.126C61.8631 92.126 63.1091 91.062 63.5011 89.536H62.1291C61.8491 90.502 61.0931 91.048 59.9591 91.048C58.5591 91.048 57.5231 90.054 57.5231 88.15C57.5231 86.274 58.5591 85.28 59.9591 85.28C61.0931 85.28 61.8631 85.868 62.1291 86.792H63.5011C63.1091 85.182 61.8631 84.202 59.9591 84.202C57.7751 84.202 56.2211 85.742 56.2211 88.15ZM65.201 92H66.475V87.758C66.475 86.106 67.371 85.294 68.673 85.294C69.961 85.294 70.815 86.092 70.815 87.66V92H72.075V87.478C72.075 85.28 70.717 84.188 69.009 84.188C67.931 84.188 66.979 84.622 66.475 85.434V81.64H65.201V92ZM77.4181 85.28C78.7341 85.28 79.8541 86.106 79.8401 87.604H74.9961C75.1361 86.106 76.1721 85.28 77.4181 85.28ZM81.0021 89.634H79.6301C79.3501 90.46 78.6221 91.048 77.4741 91.048C76.1721 91.048 75.0801 90.194 74.9821 88.64H81.1141C81.1421 88.374 81.1561 88.15 81.1561 87.87C81.1561 85.77 79.7001 84.202 77.4741 84.202C75.2341 84.202 73.6801 85.728 73.6801 88.15C73.6801 90.586 75.2901 92.126 77.4741 92.126C79.3781 92.126 80.6101 91.034 81.0021 89.634ZM88.3538 89.914C88.2978 87.17 83.8458 88.164 83.8458 86.344C83.8458 85.728 84.4058 85.28 85.3438 85.28C86.3658 85.28 86.9538 85.84 87.0098 86.61H88.2838C88.1998 85.112 87.0798 84.202 85.3858 84.202C83.6778 84.202 82.5718 85.168 82.5718 86.344C82.5718 89.2 87.1078 88.206 87.1078 89.914C87.1078 90.544 86.5478 91.048 85.5398 91.048C84.4618 91.048 83.8038 90.488 83.7338 89.746H82.4178C82.5018 91.146 83.7618 92.126 85.5538 92.126C87.2478 92.126 88.3538 91.174 88.3538 89.914ZM94.1226 92H95.3966V85.378H97.0066V84.328H95.3966V83.782C95.3966 82.788 95.7746 82.368 96.9226 82.368V81.304C94.9626 81.304 94.1226 82.074 94.1226 83.782V84.328H93.1286V85.378H94.1226V92ZM98.4921 92H99.7661V84.328H98.4921V92ZM99.1501 83.082C99.6121 83.082 99.9901 82.704 99.9901 82.214C99.9901 81.724 99.6121 81.346 99.1501 81.346C98.6601 81.346 98.2821 81.724 98.2821 82.214C98.2821 82.704 98.6601 83.082 99.1501 83.082ZM103.211 87.828C103.211 86.05 104.135 85.504 105.353 85.504H105.689V84.188C104.471 84.188 103.645 84.72 103.211 85.574V84.328H101.937V92H103.211V87.828ZM112.676 89.914C112.62 87.17 108.168 88.164 108.168 86.344C108.168 85.728 108.728 85.28 109.666 85.28C110.688 85.28 111.276 85.84 111.332 86.61H112.606C112.522 85.112 111.402 84.202 109.708 84.202C108 84.202 106.894 85.168 106.894 86.344C106.894 89.2 111.43 88.206 111.43 89.914C111.43 90.544 110.87 91.048 109.862 91.048C108.784 91.048 108.126 90.488 108.056 89.746H106.74C106.824 91.146 108.084 92.126 109.876 92.126C111.57 92.126 112.676 91.174 112.676 89.914ZM114.754 89.9C114.754 91.44 115.524 92 116.882 92H118.03V90.922H117.092C116.308 90.922 116.028 90.656 116.028 89.9V85.378H118.03V84.328H116.028V82.396H114.754V84.328H113.76V85.378H114.754V89.9ZM123.069 84.426H124.315C124.441 83.446 125.155 82.774 126.345 82.774C127.563 82.774 128.207 83.446 128.207 84.412C128.207 85.588 127.297 86.106 125.603 86.12H125.267V87.184H125.589C127.409 87.184 128.403 87.73 128.403 89.158C128.403 90.194 127.759 90.992 126.401 90.992C125.057 90.992 124.273 90.166 124.147 89.088H122.915C123.069 91.048 124.497 92.07 126.415 92.07C128.529 92.07 129.621 90.838 129.621 89.27C129.621 87.814 128.823 86.946 127.647 86.666V86.596C128.711 86.358 129.439 85.448 129.439 84.286C129.439 82.83 128.361 81.682 126.387 81.682C124.511 81.682 123.195 82.69 123.069 84.426ZM30.078 127H31.352V119.762L34.586 127H35.482L38.702 119.776V127H39.976V117.312H38.618L35.034 125.32L31.45 117.312H30.078V127ZM41.6606 123.136C41.6606 125.516 43.2426 127.126 45.2866 127.126C46.7006 127.126 47.6946 126.398 48.1566 125.572V127H49.4446V119.328H48.1566V120.728C47.7086 119.93 46.7286 119.202 45.3006 119.202C43.2426 119.202 41.6606 120.742 41.6606 123.136ZM48.1566 123.15C48.1566 124.956 46.9526 126.006 45.5526 126.006C44.1526 126.006 42.9626 124.942 42.9626 123.136C42.9626 121.33 44.1526 120.308 45.5526 120.308C46.9526 120.308 48.1566 121.372 48.1566 123.15ZM51.8775 124.9C51.8775 126.44 52.6475 127 54.0055 127H55.1535V125.922H54.2155C53.4315 125.922 53.1515 125.656 53.1515 124.9V120.378H55.1535V119.328H53.1515V117.396H51.8775V119.328H50.8835V120.378H51.8775V124.9ZM56.2211 123.15C56.2211 125.586 57.7751 127.126 59.9591 127.126C61.8631 127.126 63.1091 126.062 63.5011 124.536H62.1291C61.8491 125.502 61.0931 126.048 59.9591 126.048C58.5591 126.048 57.5231 125.054 57.5231 123.15C57.5231 121.274 58.5591 120.28 59.9591 120.28C61.0931 120.28 61.8631 120.868 62.1291 121.792H63.5011C63.1091 120.182 61.8631 119.202 59.9591 119.202C57.7751 119.202 56.2211 120.742 56.2211 123.15ZM65.201 127H66.475V122.758C66.475 121.106 67.371 120.294 68.673 120.294C69.961 120.294 70.815 121.092 70.815 122.66V127H72.075V122.478C72.075 120.28 70.717 119.188 69.009 119.188C67.931 119.188 66.979 119.622 66.475 120.434V116.64H65.201V127ZM77.4181 120.28C78.7341 120.28 79.8541 121.106 79.8401 122.604H74.9961C75.1361 121.106 76.1721 120.28 77.4181 120.28ZM81.0021 124.634H79.6301C79.3501 125.46 78.6221 126.048 77.4741 126.048C76.1721 126.048 75.0801 125.194 74.9821 123.64H81.1141C81.1421 123.374 81.1561 123.15 81.1561 122.87C81.1561 120.77 79.7001 119.202 77.4741 119.202C75.2341 119.202 73.6801 120.728 73.6801 123.15C73.6801 125.586 75.2901 127.126 77.4741 127.126C79.3781 127.126 80.6101 126.034 81.0021 124.634ZM88.3538 124.914C88.2978 122.17 83.8458 123.164 83.8458 121.344C83.8458 120.728 84.4058 120.28 85.3438 120.28C86.3658 120.28 86.9538 120.84 87.0098 121.61H88.2838C88.1998 120.112 87.0798 119.202 85.3858 119.202C83.6778 119.202 82.5718 120.168 82.5718 121.344C82.5718 124.2 87.1078 123.206 87.1078 124.914C87.1078 125.544 86.5478 126.048 85.5398 126.048C84.4618 126.048 83.8038 125.488 83.7338 124.746H82.4178C82.5018 126.146 83.7618 127.126 85.5538 127.126C87.2478 127.126 88.3538 126.174 88.3538 124.914ZM94.1226 127H95.3966V120.378H97.0066V119.328H95.3966V118.782C95.3966 117.788 95.7746 117.368 96.9226 117.368V116.304C94.9626 116.304 94.1226 117.074 94.1226 118.782V119.328H93.1286V120.378H94.1226V127ZM98.4921 127H99.7661V119.328H98.4921V127ZM99.1501 118.082C99.6121 118.082 99.9901 117.704 99.9901 117.214C99.9901 116.724 99.6121 116.346 99.1501 116.346C98.6601 116.346 98.2821 116.724 98.2821 117.214C98.2821 117.704 98.6601 118.082 99.1501 118.082ZM103.211 122.828C103.211 121.05 104.135 120.504 105.353 120.504H105.689V119.188C104.471 119.188 103.645 119.72 103.211 120.574V119.328H101.937V127H103.211V122.828ZM112.676 124.914C112.62 122.17 108.168 123.164 108.168 121.344C108.168 120.728 108.728 120.28 109.666 120.28C110.688 120.28 111.276 120.84 111.332 121.61H112.606C112.522 120.112 111.402 119.202 109.708 119.202C108 119.202 106.894 120.168 106.894 121.344C106.894 124.2 111.43 123.206 111.43 124.914C111.43 125.544 110.87 126.048 109.862 126.048C108.784 126.048 108.126 125.488 108.056 124.746H106.74C106.824 126.146 108.084 127.126 109.876 127.126C111.57 127.126 112.676 126.174 112.676 124.914ZM114.754 124.9C114.754 126.44 115.524 127 116.882 127H118.03V125.922H117.092C116.308 125.922 116.028 125.656 116.028 124.9V120.378H118.03V119.328H116.028V117.396H114.754V119.328H113.76V120.378H114.754V124.9ZM127.969 127H129.229V124.746H130.629V123.64H129.229V116.976H127.703L122.789 123.78V124.746H127.969V127ZM124.259 123.64L128.025 118.306V123.64H124.259ZM30.078 162H31.352V154.762L34.586 162H35.482L38.702 154.776V162H39.976V152.312H38.618L35.034 160.32L31.45 152.312H30.078V162ZM41.6606 158.136C41.6606 160.516 43.2426 162.126 45.2866 162.126C46.7006 162.126 47.6946 161.398 48.1566 160.572V162H49.4446V154.328H48.1566V155.728C47.7086 154.93 46.7286 154.202 45.3006 154.202C43.2426 154.202 41.6606 155.742 41.6606 158.136ZM48.1566 158.15C48.1566 159.956 46.9526 161.006 45.5526 161.006C44.1526 161.006 42.9626 159.942 42.9626 158.136C42.9626 156.33 44.1526 155.308 45.5526 155.308C46.9526 155.308 48.1566 156.372 48.1566 158.15ZM51.8775 159.9C51.8775 161.44 52.6475 162 54.0055 162H55.1535V160.922H54.2155C53.4315 160.922 53.1515 160.656 53.1515 159.9V155.378H55.1535V154.328H53.1515V152.396H51.8775V154.328H50.8835V155.378H51.8775V159.9ZM56.2211 158.15C56.2211 160.586 57.7751 162.126 59.9591 162.126C61.8631 162.126 63.1091 161.062 63.5011 159.536H62.1291C61.8491 160.502 61.0931 161.048 59.9591 161.048C58.5591 161.048 57.5231 160.054 57.5231 158.15C57.5231 156.274 58.5591 155.28 59.9591 155.28C61.0931 155.28 61.8631 155.868 62.1291 156.792H63.5011C63.1091 155.182 61.8631 154.202 59.9591 154.202C57.7751 154.202 56.2211 155.742 56.2211 158.15ZM65.201 162H66.475V157.758C66.475 156.106 67.371 155.294 68.673 155.294C69.961 155.294 70.815 156.092 70.815 157.66V162H72.075V157.478C72.075 155.28 70.717 154.188 69.009 154.188C67.931 154.188 66.979 154.622 66.475 155.434V151.64H65.201V162ZM77.4181 155.28C78.7341 155.28 79.8541 156.106 79.8401 157.604H74.9961C75.1361 156.106 76.1721 155.28 77.4181 155.28ZM81.0021 159.634H79.6301C79.3501 160.46 78.6221 161.048 77.4741 161.048C76.1721 161.048 75.0801 160.194 74.9821 158.64H81.1141C81.1421 158.374 81.1561 158.15 81.1561 157.87C81.1561 155.77 79.7001 154.202 77.4741 154.202C75.2341 154.202 73.6801 155.728 73.6801 158.15C73.6801 160.586 75.2901 162.126 77.4741 162.126C79.3781 162.126 80.6101 161.034 81.0021 159.634ZM88.3538 159.914C88.2978 157.17 83.8458 158.164 83.8458 156.344C83.8458 155.728 84.4058 155.28 85.3438 155.28C86.3658 155.28 86.9538 155.84 87.0098 156.61H88.2838C88.1998 155.112 87.0798 154.202 85.3858 154.202C83.6778 154.202 82.5718 155.168 82.5718 156.344C82.5718 159.2 87.1078 158.206 87.1078 159.914C87.1078 160.544 86.5478 161.048 85.5398 161.048C84.4618 161.048 83.8038 160.488 83.7338 159.746H82.4178C82.5018 161.146 83.7618 162.126 85.5538 162.126C87.2478 162.126 88.3538 161.174 88.3538 159.914ZM94.1226 162H95.3966V155.378H97.0066V154.328H95.3966V153.782C95.3966 152.788 95.7746 152.368 96.9226 152.368V151.304C94.9626 151.304 94.1226 152.074 94.1226 153.782V154.328H93.1286V155.378H94.1226V162ZM98.4921 162H99.7661V154.328H98.4921V162ZM99.1501 153.082C99.6121 153.082 99.9901 152.704 99.9901 152.214C99.9901 151.724 99.6121 151.346 99.1501 151.346C98.6601 151.346 98.2821 151.724 98.2821 152.214C98.2821 152.704 98.6601 153.082 99.1501 153.082ZM103.211 157.828C103.211 156.05 104.135 155.504 105.353 155.504H105.689V154.188C104.471 154.188 103.645 154.72 103.211 155.574V154.328H101.937V162H103.211V157.828ZM112.676 159.914C112.62 157.17 108.168 158.164 108.168 156.344C108.168 155.728 108.728 155.28 109.666 155.28C110.688 155.28 111.276 155.84 111.332 156.61H112.606C112.522 155.112 111.402 154.202 109.708 154.202C108 154.202 106.894 155.168 106.894 156.344C106.894 159.2 111.43 158.206 111.43 159.914C111.43 160.544 110.87 161.048 109.862 161.048C108.784 161.048 108.126 160.488 108.056 159.746H106.74C106.824 161.146 108.084 162.126 109.876 162.126C111.57 162.126 112.676 161.174 112.676 159.914ZM114.754 159.9C114.754 161.44 115.524 162 116.882 162H118.03V160.922H117.092C116.308 160.922 116.028 160.656 116.028 159.9V155.378H118.03V154.328H116.028V152.396H114.754V154.328H113.76V155.378H114.754V159.9ZM123.461 151.864V157.576H124.665C125.001 156.778 125.743 156.246 126.765 156.246C128.235 156.246 128.977 157.086 128.977 158.528C128.977 159.914 128.291 160.95 126.751 160.95C125.561 160.95 124.735 160.32 124.497 159.256H123.251C123.503 160.894 124.721 162.028 126.737 162.028C129.103 162.028 130.195 160.46 130.195 158.5C130.195 156.932 129.411 155.154 126.947 155.154C125.953 155.154 125.057 155.602 124.637 156.176V152.984H129.551V151.864H123.461ZM30.078 197H31.352V189.762L34.586 197H35.482L38.702 189.776V197H39.976V187.312H38.618L35.034 195.32L31.45 187.312H30.078V197ZM41.6606 193.136C41.6606 195.516 43.2426 197.126 45.2866 197.126C46.7006 197.126 47.6946 196.398 48.1566 195.572V197H49.4446V189.328H48.1566V190.728C47.7086 189.93 46.7286 189.202 45.3006 189.202C43.2426 189.202 41.6606 190.742 41.6606 193.136ZM48.1566 193.15C48.1566 194.956 46.9526 196.006 45.5526 196.006C44.1526 196.006 42.9626 194.942 42.9626 193.136C42.9626 191.33 44.1526 190.308 45.5526 190.308C46.9526 190.308 48.1566 191.372 48.1566 193.15ZM51.8775 194.9C51.8775 196.44 52.6475 197 54.0055 197H55.1535V195.922H54.2155C53.4315 195.922 53.1515 195.656 53.1515 194.9V190.378H55.1535V189.328H53.1515V187.396H51.8775V189.328H50.8835V190.378H51.8775V194.9ZM56.2211 193.15C56.2211 195.586 57.7751 197.126 59.9591 197.126C61.8631 197.126 63.1091 196.062 63.5011 194.536H62.1291C61.8491 195.502 61.0931 196.048 59.9591 196.048C58.5591 196.048 57.5231 195.054 57.5231 193.15C57.5231 191.274 58.5591 190.28 59.9591 190.28C61.0931 190.28 61.8631 190.868 62.1291 191.792H63.5011C63.1091 190.182 61.8631 189.202 59.9591 189.202C57.7751 189.202 56.2211 190.742 56.2211 193.15ZM65.201 197H66.475V192.758C66.475 191.106 67.371 190.294 68.673 190.294C69.961 190.294 70.815 191.092 70.815 192.66V197H72.075V192.478C72.075 190.28 70.717 189.188 69.009 189.188C67.931 189.188 66.979 189.622 66.475 190.434V186.64H65.201V197ZM77.4181 190.28C78.7341 190.28 79.8541 191.106 79.8401 192.604H74.9961C75.1361 191.106 76.1721 190.28 77.4181 190.28ZM81.0021 194.634H79.6301C79.3501 195.46 78.6221 196.048 77.4741 196.048C76.1721 196.048 75.0801 195.194 74.9821 193.64H81.1141C81.1421 193.374 81.1561 193.15 81.1561 192.87C81.1561 190.77 79.7001 189.202 77.4741 189.202C75.2341 189.202 73.6801 190.728 73.6801 193.15C73.6801 195.586 75.2901 197.126 77.4741 197.126C79.3781 197.126 80.6101 196.034 81.0021 194.634ZM88.3538 194.914C88.2978 192.17 83.8458 193.164 83.8458 191.344C83.8458 190.728 84.4058 190.28 85.3438 190.28C86.3658 190.28 86.9538 190.84 87.0098 191.61H88.2838C88.1998 190.112 87.0798 189.202 85.3858 189.202C83.6778 189.202 82.5718 190.168 82.5718 191.344C82.5718 194.2 87.1078 193.206 87.1078 194.914C87.1078 195.544 86.5478 196.048 85.5398 196.048C84.4618 196.048 83.8038 195.488 83.7338 194.746H82.4178C82.5018 196.146 83.7618 197.126 85.5538 197.126C87.2478 197.126 88.3538 196.174 88.3538 194.914ZM93.4086 193.136C93.4086 195.516 94.9906 197.126 97.0346 197.126C98.4486 197.126 99.4426 196.398 99.9046 195.572V197H101.193V189.328H99.9046V190.728C99.4566 189.93 98.4766 189.202 97.0486 189.202C94.9906 189.202 93.4086 190.742 93.4086 193.136ZM99.9046 193.15C99.9046 194.956 98.7006 196.006 97.3006 196.006C95.9006 196.006 94.7106 194.942 94.7106 193.136C94.7106 191.33 95.9006 190.308 97.3006 190.308C98.7006 190.308 99.9046 191.372 99.9046 193.15ZM103.346 197H104.62V186.64H103.346V197ZM106.791 197H108.065V186.64H106.791V197ZM35.622 229.256C35.622 230.32 34.866 230.95 33.606 230.95H31.352V227.506H33.564C34.81 227.506 35.622 228.178 35.622 229.256ZM35.37 224.874C35.37 225.868 34.684 226.456 33.494 226.456H31.352V223.292H33.466C34.712 223.292 35.37 223.908 35.37 224.874ZM36.896 229.382C36.896 228.178 36.028 227.156 34.964 226.974C35.902 226.666 36.672 225.952 36.672 224.72C36.672 223.362 35.636 222.242 33.578 222.242H30.078V232H33.718C35.734 232 36.896 230.852 36.896 229.382ZM45.4679 224.328H44.1939V228.542C44.1939 230.194 43.3119 231.006 41.9959 231.006C40.7079 231.006 39.8539 230.208 39.8539 228.654V224.328H38.5939V228.822C38.5939 231.02 39.9799 232.112 41.7439 232.112C42.7659 232.112 43.7039 231.664 44.1939 230.866V232H45.4679V224.328ZM48.893 227.828C48.893 226.05 49.817 225.504 51.035 225.504H51.371V224.188C50.153 224.188 49.327 224.72 48.893 225.574V224.328H47.619V232H48.893V227.828ZM58.4557 232H59.7157V227.478C59.7157 225.28 58.3577 224.188 56.5797 224.188C55.5437 224.188 54.6197 224.622 54.1157 225.42V224.328H52.8417V232H54.1157V227.758C54.1157 226.106 55.0117 225.294 56.3137 225.294C57.6017 225.294 58.4557 226.092 58.4557 227.66V232ZM66.8032 226.876V223.292H68.6792C70.1352 223.292 70.7512 223.964 70.7512 225.098C70.7512 226.19 70.1352 226.876 68.6792 226.876H66.8032ZM72.0532 225.098C72.0532 223.502 70.9752 222.242 68.6792 222.242H65.5292V232H66.8032V227.926H68.6792C71.1012 227.926 72.0532 226.582 72.0532 225.098ZM80.9166 228.15C80.9166 225.728 79.2226 224.202 77.0386 224.202C74.8686 224.202 73.1606 225.728 73.1606 228.15C73.1606 230.586 74.8126 232.126 76.9826 232.126C79.1666 232.126 80.9166 230.586 80.9166 228.15ZM74.4626 228.15C74.4626 226.218 75.6806 225.308 77.0246 225.308C78.3406 225.308 79.6146 226.218 79.6146 228.15C79.6146 230.096 78.3126 231.006 76.9826 231.006C75.6526 231.006 74.4626 230.096 74.4626 228.15ZM89.8717 228.15C89.8717 225.728 88.1777 224.202 85.9937 224.202C83.8237 224.202 82.1157 225.728 82.1157 228.15C82.1157 230.586 83.7677 232.126 85.9377 232.126C88.1217 232.126 89.8717 230.586 89.8717 228.15ZM83.4177 228.15C83.4177 226.218 84.6357 225.308 85.9797 225.308C87.2957 225.308 88.5697 226.218 88.5697 228.15C88.5697 230.096 87.2677 231.006 85.9377 231.006C84.6077 231.006 83.4177 230.096 83.4177 228.15ZM91.5468 232H92.8208V221.64H91.5468V232ZM29.602 262.114C29.602 265.04 31.744 267.084 34.474 267.084C36.588 267.084 38.268 266.034 38.996 264.158H37.47C36.938 265.32 35.902 265.978 34.474 265.978C32.43 265.978 30.904 264.494 30.904 262.114C30.904 259.72 32.43 258.236 34.474 258.236C35.902 258.236 36.938 258.894 37.47 260.07H38.996C38.268 258.18 36.588 257.116 34.474 257.116C31.744 257.116 29.602 259.188 29.602 262.114ZM48.1725 263.15C48.1725 260.728 46.4785 259.202 44.2945 259.202C42.1245 259.202 40.4165 260.728 40.4165 263.15C40.4165 265.586 42.0685 267.126 44.2385 267.126C46.4225 267.126 48.1725 265.586 48.1725 263.15ZM41.7185 263.15C41.7185 261.218 42.9365 260.308 44.2805 260.308C45.5965 260.308 46.8705 261.218 46.8705 263.15C46.8705 265.096 45.5685 266.006 44.2385 266.006C42.9085 266.006 41.7185 265.096 41.7185 263.15ZM60.9215 267H62.1815V262.478C62.1815 260.28 60.8235 259.188 59.0735 259.188C57.8975 259.188 56.8055 259.79 56.3575 260.896C55.8535 259.748 54.8035 259.188 53.5435 259.188C52.5355 259.188 51.6255 259.622 51.1215 260.434V259.328H49.8475V267H51.1215V262.772C51.1215 261.12 52.0035 260.294 53.2915 260.294C54.5515 260.294 55.3915 261.092 55.3915 262.66V267H56.6515V262.772C56.6515 261.12 57.5335 260.294 58.8215 260.294C60.0815 260.294 60.9215 261.092 60.9215 262.66V267ZM65.5454 260.742V259.328H64.2714V270.64H65.5454V265.586C66.0214 266.37 67.0154 267.126 68.4154 267.126C70.4734 267.126 72.0554 265.516 72.0554 263.136C72.0554 260.742 70.4734 259.202 68.4154 259.202C67.0154 259.202 66.0074 259.93 65.5454 260.742ZM70.7534 263.136C70.7534 264.942 69.5634 266.006 68.1494 266.006C66.7634 266.006 65.5454 264.956 65.5454 263.15C65.5454 261.372 66.7634 260.308 68.1494 260.308C69.5634 260.308 70.7534 261.33 70.7534 263.136ZM76.9943 260.28C78.3103 260.28 79.4303 261.106 79.4163 262.604H74.5723C74.7123 261.106 75.7483 260.28 76.9943 260.28ZM80.5783 264.634H79.2063C78.9263 265.46 78.1983 266.048 77.0503 266.048C75.7483 266.048 74.6563 265.194 74.5583 263.64H80.6903C80.7183 263.374 80.7323 263.15 80.7323 262.87C80.7323 260.77 79.2763 259.202 77.0503 259.202C74.8103 259.202 73.2563 260.728 73.2563 263.15C73.2563 265.586 74.8663 267.126 77.0503 267.126C78.9543 267.126 80.1863 266.034 80.5783 264.634ZM82.6939 264.9C82.6939 266.44 83.4639 267 84.8219 267H85.9699V265.922H85.0319C84.2479 265.922 83.9679 265.656 83.9679 264.9V260.378H85.9699V259.328H83.9679V257.396H82.6939V259.328H81.6999V260.378H82.6939V264.9ZM87.5135 267H88.7875V259.328H87.5135V267ZM88.1715 258.082C88.6335 258.082 89.0115 257.704 89.0115 257.214C89.0115 256.724 88.6335 256.346 88.1715 256.346C87.6815 256.346 87.3035 256.724 87.3035 257.214C87.3035 257.704 87.6815 258.082 88.1715 258.082ZM91.2389 264.9C91.2389 266.44 92.0089 267 93.3669 267H94.5149V265.922H93.5769C92.7929 265.922 92.5129 265.656 92.5129 264.9V260.378H94.5149V259.328H92.5129V257.396H91.2389V259.328H90.2449V260.378H91.2389V264.9ZM96.0585 267H97.3325V259.328H96.0585V267ZM96.7165 258.082C97.1785 258.082 97.5565 257.704 97.5565 257.214C97.5565 256.724 97.1785 256.346 96.7165 256.346C96.2265 256.346 95.8485 256.724 95.8485 257.214C95.8485 257.704 96.2265 258.082 96.7165 258.082ZM106.784 263.15C106.784 260.728 105.09 259.202 102.906 259.202C100.736 259.202 99.0278 260.728 99.0278 263.15C99.0278 265.586 100.68 267.126 102.85 267.126C105.034 267.126 106.784 265.586 106.784 263.15ZM100.33 263.15C100.33 261.218 101.548 260.308 102.892 260.308C104.208 260.308 105.482 261.218 105.482 263.15C105.482 265.096 104.18 266.006 102.85 266.006C101.52 266.006 100.33 265.096 100.33 263.15ZM114.073 267H115.333V262.478C115.333 260.28 113.975 259.188 112.197 259.188C111.161 259.188 110.237 259.622 109.733 260.42V259.328H108.459V267H109.733V262.758C109.733 261.106 110.629 260.294 111.931 260.294C113.219 260.294 114.073 261.092 114.073 262.66V267ZM35.3 295.112C35.3 296.204 34.67 296.988 33.228 296.988H31.352V293.292H33.228C34.684 293.292 35.3 294.006 35.3 295.112ZM30.078 292.242V302H31.352V298.01H32.892L35.216 302H36.742L34.292 297.912C35.93 297.548 36.616 296.358 36.616 295.112C36.616 293.516 35.524 292.242 33.228 292.242H30.078ZM41.8576 295.28C43.1736 295.28 44.2936 296.106 44.2796 297.604H39.4356C39.5756 296.106 40.6116 295.28 41.8576 295.28ZM45.4416 299.634H44.0696C43.7896 300.46 43.0616 301.048 41.9136 301.048C40.6116 301.048 39.5196 300.194 39.4216 298.64H45.5536C45.5816 298.374 45.5956 298.15 45.5956 297.87C45.5956 295.77 44.1396 294.202 41.9136 294.202C39.6736 294.202 38.1196 295.728 38.1196 298.15C38.1196 300.586 39.7296 302.126 41.9136 302.126C43.8176 302.126 45.0496 301.034 45.4416 299.634ZM47.5152 302H48.7892V295.378H50.3992V294.328H48.7892V293.782C48.7892 292.788 49.1672 292.368 50.3152 292.368V291.304C48.3552 291.304 47.5152 292.074 47.5152 293.782V294.328H46.5212V295.378H47.5152V302ZM55.1466 295.28C56.4626 295.28 57.5826 296.106 57.5686 297.604H52.7246C52.8646 296.106 53.9006 295.28 55.1466 295.28ZM58.7306 299.634H57.3586C57.0786 300.46 56.3506 301.048 55.2026 301.048C53.9006 301.048 52.8086 300.194 52.7106 298.64H58.8426C58.8706 298.374 58.8846 298.15 58.8846 297.87C58.8846 295.77 57.4286 294.202 55.2026 294.202C52.9626 294.202 51.4086 295.728 51.4086 298.15C51.4086 300.586 53.0186 302.126 55.2026 302.126C57.1066 302.126 58.3386 301.034 58.7306 299.634ZM61.8403 297.828C61.8403 296.05 62.7643 295.504 63.9823 295.504H64.3183V294.188C63.1003 294.188 62.2743 294.72 61.8403 295.574V294.328H60.5663V302H61.8403V297.828ZM67.0629 297.828C67.0629 296.05 67.9869 295.504 69.2049 295.504H69.5409V294.188C68.3229 294.188 67.4969 294.72 67.0629 295.574V294.328H65.7889V302H67.0629V297.828ZM70.5356 298.136C70.5356 300.516 72.1176 302.126 74.1616 302.126C75.5756 302.126 76.5696 301.398 77.0316 300.572V302H78.3196V294.328H77.0316V295.728C76.5836 294.93 75.6036 294.202 74.1756 294.202C72.1176 294.202 70.5356 295.742 70.5356 298.136ZM77.0316 298.15C77.0316 299.956 75.8276 301.006 74.4276 301.006C73.0276 301.006 71.8376 299.942 71.8376 298.136C71.8376 296.33 73.0276 295.308 74.4276 295.308C75.8276 295.308 77.0316 296.372 77.0316 298.15ZM80.4725 302H81.7465V291.64H80.4725V302Z" fill="black"/>
<path d="M302.714 21.888H309.448V20.824H304.632C306.438 19.354 309.154 17.212 309.154 14.692C309.154 12.816 307.922 11.696 306.018 11.696C304.198 11.696 302.84 12.816 302.756 14.972H303.988C304.044 13.698 304.716 12.788 306.032 12.788C307.404 12.788 307.894 13.628 307.894 14.748C307.894 16.82 305.374 18.836 302.714 20.978V21.888ZM310.641 14.16C310.641 15.476 311.523 16.26 312.685 16.26C313.861 16.26 314.729 15.476 314.729 14.16C314.729 12.858 313.861 12.074 312.685 12.074C311.523 12.074 310.641 12.858 310.641 14.16ZM312.685 12.858C313.301 12.858 313.721 13.278 313.721 14.16C313.721 15.028 313.301 15.476 312.685 15.476C312.069 15.476 311.663 15.028 311.663 14.16C311.663 13.278 312.069 12.858 312.685 12.858ZM311.887 22H313.147L318.817 12.228H317.557L311.887 22ZM316.003 20.068C316.003 21.37 316.871 22.168 318.047 22.168C319.209 22.168 320.077 21.37 320.077 20.068C320.077 18.752 319.209 17.968 318.047 17.968C316.871 17.968 316.003 18.752 316.003 20.068ZM318.033 18.766C318.649 18.766 319.069 19.186 319.069 20.068C319.069 20.936 318.649 21.356 318.033 21.356C317.417 21.356 316.997 20.936 316.997 20.068C316.997 19.186 317.417 18.766 318.033 18.766ZM302.84 49.426H304.086C304.212 48.446 304.926 47.774 306.116 47.774C307.334 47.774 307.978 48.446 307.978 49.412C307.978 50.588 307.068 51.106 305.374 51.12H305.038V52.184H305.36C307.18 52.184 308.174 52.73 308.174 54.158C308.174 55.194 307.53 55.992 306.172 55.992C304.828 55.992 304.044 55.166 303.918 54.088H302.686C302.84 56.048 304.268 57.07 306.186 57.07C308.3 57.07 309.392 55.838 309.392 54.27C309.392 52.814 308.594 51.946 307.418 51.666V51.596C308.482 51.358 309.21 50.448 309.21 49.286C309.21 47.83 308.132 46.682 306.158 46.682C304.282 46.682 302.966 47.69 302.84 49.426ZM310.832 49.16C310.832 50.476 311.714 51.26 312.876 51.26C314.052 51.26 314.92 50.476 314.92 49.16C314.92 47.858 314.052 47.074 312.876 47.074C311.714 47.074 310.832 47.858 310.832 49.16ZM312.876 47.858C313.492 47.858 313.912 48.278 313.912 49.16C313.912 50.028 313.492 50.476 312.876 50.476C312.26 50.476 311.854 50.028 311.854 49.16C311.854 48.278 312.26 47.858 312.876 47.858ZM312.078 57H313.338L319.008 47.228H317.748L312.078 57ZM316.194 55.068C316.194 56.37 317.062 57.168 318.238 57.168C319.4 57.168 320.268 56.37 320.268 55.068C320.268 53.752 319.4 52.968 318.238 52.968C317.062 52.968 316.194 53.752 316.194 55.068ZM318.224 53.766C318.84 53.766 319.26 54.186 319.26 55.068C319.26 55.936 318.84 56.356 318.224 56.356C317.608 56.356 317.188 55.936 317.188 55.068C317.188 54.186 317.608 53.766 318.224 53.766ZM303.232 81.864V87.576H304.436C304.772 86.778 305.514 86.246 306.536 86.246C308.006 86.246 308.748 87.086 308.748 88.528C308.748 89.914 308.062 90.95 306.522 90.95C305.332 90.95 304.506 90.32 304.268 89.256H303.022C303.274 90.894 304.492 92.028 306.508 92.028C308.874 92.028 309.966 90.46 309.966 88.5C309.966 86.932 309.182 85.154 306.718 85.154C305.724 85.154 304.828 85.602 304.408 86.176V82.984H309.322V81.864H303.232ZM311.379 84.16C311.379 85.476 312.261 86.26 313.423 86.26C314.599 86.26 315.467 85.476 315.467 84.16C315.467 82.858 314.599 82.074 313.423 82.074C312.261 82.074 311.379 82.858 311.379 84.16ZM313.423 82.858C314.039 82.858 314.459 83.278 314.459 84.16C314.459 85.028 314.039 85.476 313.423 85.476C312.807 85.476 312.401 85.028 312.401 84.16C312.401 83.278 312.807 82.858 313.423 82.858ZM312.625 92H313.885L319.555 82.228H318.295L312.625 92ZM316.741 90.068C316.741 91.37 317.609 92.168 318.785 92.168C319.947 92.168 320.815 91.37 320.815 90.068C320.815 88.752 319.947 87.968 318.785 87.968C317.609 87.968 316.741 88.752 316.741 90.068ZM318.771 88.766C319.387 88.766 319.807 89.186 319.807 90.068C319.807 90.936 319.387 91.356 318.771 91.356C318.155 91.356 317.735 90.936 317.735 90.068C317.735 89.186 318.155 88.766 318.771 88.766ZM303.876 127H305.164V116.878H302.532V118.04H303.876V127ZM307.352 121.834C307.352 124.774 308.08 127 310.88 127C313.666 127 314.394 124.774 314.394 121.834C314.394 118.936 313.666 116.724 310.88 116.724C308.08 116.724 307.352 118.936 307.352 121.834ZM313.134 121.834C313.134 124.018 312.868 125.838 310.88 125.838C308.878 125.838 308.612 124.018 308.612 121.834C308.612 119.734 308.878 117.886 310.88 117.886C312.868 117.886 313.134 119.734 313.134 121.834ZM315.863 119.16C315.863 120.476 316.745 121.26 317.907 121.26C319.083 121.26 319.951 120.476 319.951 119.16C319.951 117.858 319.083 117.074 317.907 117.074C316.745 117.074 315.863 117.858 315.863 119.16ZM317.907 117.858C318.523 117.858 318.943 118.278 318.943 119.16C318.943 120.028 318.523 120.476 317.907 120.476C317.291 120.476 316.885 120.028 316.885 119.16C316.885 118.278 317.291 117.858 317.907 117.858ZM317.109 127H318.369L324.039 117.228H322.779L317.109 127ZM321.225 125.068C321.225 126.37 322.093 127.168 323.269 127.168C324.431 127.168 325.299 126.37 325.299 125.068C325.299 123.752 324.431 122.968 323.269 122.968C322.093 122.968 321.225 123.752 321.225 125.068ZM323.255 123.766C323.871 123.766 324.291 124.186 324.291 125.068C324.291 125.936 323.871 126.356 323.255 126.356C322.639 126.356 322.219 125.936 322.219 125.068C322.219 124.186 322.639 123.766 323.255 123.766ZM302.714 161.888H309.448V160.824H304.632C306.438 159.354 309.154 157.212 309.154 154.692C309.154 152.816 307.922 151.696 306.018 151.696C304.198 151.696 302.84 152.816 302.756 154.972H303.988C304.044 153.698 304.716 152.788 306.032 152.788C307.404 152.788 307.894 153.628 307.894 154.748C307.894 156.82 305.374 158.836 302.714 160.978V161.888ZM310.921 156.834C310.921 159.774 311.649 162 314.449 162C317.235 162 317.963 159.774 317.963 156.834C317.963 153.936 317.235 151.724 314.449 151.724C311.649 151.724 310.921 153.936 310.921 156.834ZM316.703 156.834C316.703 159.018 316.437 160.838 314.449 160.838C312.447 160.838 312.181 159.018 312.181 156.834C312.181 154.734 312.447 152.886 314.449 152.886C316.437 152.886 316.703 154.734 316.703 156.834ZM319.432 154.16C319.432 155.476 320.314 156.26 321.476 156.26C322.652 156.26 323.52 155.476 323.52 154.16C323.52 152.858 322.652 152.074 321.476 152.074C320.314 152.074 319.432 152.858 319.432 154.16ZM321.476 152.858C322.092 152.858 322.512 153.278 322.512 154.16C322.512 155.028 322.092 155.476 321.476 155.476C320.86 155.476 320.454 155.028 320.454 154.16C320.454 153.278 320.86 152.858 321.476 152.858ZM320.678 162H321.938L327.608 152.228H326.348L320.678 162ZM324.794 160.068C324.794 161.37 325.662 162.168 326.838 162.168C328 162.168 328.868 161.37 328.868 160.068C328.868 158.752 328 157.968 326.838 157.968C325.662 157.968 324.794 158.752 324.794 160.068ZM326.824 158.766C327.44 158.766 327.86 159.186 327.86 160.068C327.86 160.936 327.44 161.356 326.824 161.356C326.208 161.356 325.788 160.936 325.788 160.068C325.788 159.186 326.208 158.766 326.824 158.766ZM307.74 197H309V194.746H310.4V193.64H309V186.976H307.474L302.56 193.78V194.746H307.74V197ZM304.03 193.64L307.796 188.306V193.64H304.03ZM311.673 191.834C311.673 194.774 312.401 197 315.201 197C317.987 197 318.715 194.774 318.715 191.834C318.715 188.936 317.987 186.724 315.201 186.724C312.401 186.724 311.673 188.936 311.673 191.834ZM317.455 191.834C317.455 194.018 317.189 195.838 315.201 195.838C313.199 195.838 312.933 194.018 312.933 191.834C312.933 189.734 313.199 187.886 315.201 187.886C317.189 187.886 317.455 189.734 317.455 191.834ZM320.184 189.16C320.184 190.476 321.066 191.26 322.228 191.26C323.404 191.26 324.272 190.476 324.272 189.16C324.272 187.858 323.404 187.074 322.228 187.074C321.066 187.074 320.184 187.858 320.184 189.16ZM322.228 187.858C322.844 187.858 323.264 188.278 323.264 189.16C323.264 190.028 322.844 190.476 322.228 190.476C321.612 190.476 321.206 190.028 321.206 189.16C321.206 188.278 321.612 187.858 322.228 187.858ZM321.43 197H322.69L328.36 187.228H327.1L321.43 197ZM325.546 195.068C325.546 196.37 326.414 197.168 327.59 197.168C328.752 197.168 329.62 196.37 329.62 195.068C329.62 193.752 328.752 192.968 327.59 192.968C326.414 192.968 325.546 193.752 325.546 195.068ZM327.576 193.766C328.192 193.766 328.612 194.186 328.612 195.068C328.612 195.936 328.192 196.356 327.576 196.356C326.96 196.356 326.54 195.936 326.54 195.068C326.54 194.186 326.96 193.766 327.576 193.766ZM303.876 232H305.164V221.878H302.532V223.04H303.876V232ZM307.324 224.426H308.57C308.696 223.446 309.41 222.774 310.6 222.774C311.818 222.774 312.462 223.446 312.462 224.412C312.462 225.588 311.552 226.106 309.858 226.12H309.522V227.184H309.844C311.664 227.184 312.658 227.73 312.658 229.158C312.658 230.194 312.014 230.992 310.656 230.992C309.312 230.992 308.528 230.166 308.402 229.088H307.17C307.324 231.048 308.752 232.07 310.67 232.07C312.784 232.07 313.876 230.838 313.876 229.27C313.876 227.814 313.078 226.946 311.902 226.666V226.596C312.966 226.358 313.694 225.448 313.694 224.286C313.694 222.83 312.616 221.682 310.642 221.682C308.766 221.682 307.45 222.69 307.324 224.426ZM315.317 224.16C315.317 225.476 316.199 226.26 317.361 226.26C318.537 226.26 319.405 225.476 319.405 224.16C319.405 222.858 318.537 222.074 317.361 222.074C316.199 222.074 315.317 222.858 315.317 224.16ZM317.361 222.858C317.977 222.858 318.397 223.278 318.397 224.16C318.397 225.028 317.977 225.476 317.361 225.476C316.745 225.476 316.339 225.028 316.339 224.16C316.339 223.278 316.745 222.858 317.361 222.858ZM316.563 232H317.823L323.493 222.228H322.233L316.563 232ZM320.679 230.068C320.679 231.37 321.547 232.168 322.723 232.168C323.885 232.168 324.753 231.37 324.753 230.068C324.753 228.752 323.885 227.968 322.723 227.968C321.547 227.968 320.679 228.752 320.679 230.068ZM322.709 228.766C323.325 228.766 323.745 229.186 323.745 230.068C323.745 230.936 323.325 231.356 322.709 231.356C322.093 231.356 321.673 230.936 321.673 230.068C321.673 229.186 322.093 228.766 322.709 228.766ZM303.232 256.864V262.576H304.436C304.772 261.778 305.514 261.246 306.536 261.246C308.006 261.246 308.748 262.086 308.748 263.528C308.748 264.914 308.062 265.95 306.522 265.95C305.332 265.95 304.506 265.32 304.268 264.256H303.022C303.274 265.894 304.492 267.028 306.508 267.028C308.874 267.028 309.966 265.46 309.966 263.5C309.966 261.932 309.182 260.154 306.718 260.154C305.724 260.154 304.828 260.602 304.408 261.176V257.984H309.322V256.864H303.232ZM311.379 259.16C311.379 260.476 312.261 261.26 313.423 261.26C314.599 261.26 315.467 260.476 315.467 259.16C315.467 257.858 314.599 257.074 313.423 257.074C312.261 257.074 311.379 257.858 311.379 259.16ZM313.423 257.858C314.039 257.858 314.459 258.278 314.459 259.16C314.459 260.028 314.039 260.476 313.423 260.476C312.807 260.476 312.401 260.028 312.401 259.16C312.401 258.278 312.807 257.858 313.423 257.858ZM312.625 267H313.885L319.555 257.228H318.295L312.625 267ZM316.741 265.068C316.741 266.37 317.609 267.168 318.785 267.168C319.947 267.168 320.815 266.37 320.815 265.068C320.815 263.752 319.947 262.968 318.785 262.968C317.609 262.968 316.741 263.752 316.741 265.068ZM318.771 263.766C319.387 263.766 319.807 264.186 319.807 265.068C319.807 265.936 319.387 266.356 318.771 266.356C318.155 266.356 317.735 265.936 317.735 265.068C317.735 264.186 318.155 263.766 318.771 263.766ZM302.714 301.888H309.448V300.824H304.632C306.438 299.354 309.154 297.212 309.154 294.692C309.154 292.816 307.922 291.696 306.018 291.696C304.198 291.696 302.84 292.816 302.756 294.972H303.988C304.044 293.698 304.716 292.788 306.032 292.788C307.404 292.788 307.894 293.628 307.894 294.748C307.894 296.82 305.374 298.836 302.714 300.978V301.888ZM310.641 294.16C310.641 295.476 311.523 296.26 312.685 296.26C313.861 296.26 314.729 295.476 314.729 294.16C314.729 292.858 313.861 292.074 312.685 292.074C311.523 292.074 310.641 292.858 310.641 294.16ZM312.685 292.858C313.301 292.858 313.721 293.278 313.721 294.16C313.721 295.028 313.301 295.476 312.685 295.476C312.069 295.476 311.663 295.028 311.663 294.16C311.663 293.278 312.069 292.858 312.685 292.858ZM311.887 302H313.147L318.817 292.228H317.557L311.887 302ZM316.003 300.068C316.003 301.37 316.871 302.168 318.047 302.168C319.209 302.168 320.077 301.37 320.077 300.068C320.077 298.752 319.209 297.968 318.047 297.968C316.871 297.968 316.003 298.752 316.003 300.068ZM318.033 298.766C318.649 298.766 319.069 299.186 319.069 300.068C319.069 300.936 318.649 301.356 318.033 301.356C317.417 301.356 316.997 300.936 316.997 300.068C316.997 299.186 317.417 298.766 318.033 298.766Z" fill="black"/>
<line x1="147" y1="16.5" x2="284" y2="16.5" stroke="#B4B4B4" stroke-dasharray="3 3"/>
<circle cx="7" cy="52" r="7" fill="#6158C4"/>
<line x1="147" y1="51.5" x2="284" y2="51.5" stroke="#B4B4B4" stroke-dasharray="3 3"/>
<circle cx="7" cy="87" r="7" fill="#521C96"/>
<line x1="147" y1="86.5" x2="284" y2="86.5" stroke="#B4B4B4" stroke-dasharray="3 3"/>
<circle cx="7" cy="122" r="7" fill="#7D2D9A"/>
<line x1="147" y1="121.5" x2="284" y2="121.5" stroke="#B4B4B4" stroke-dasharray="3 3"/>
<circle cx="7" cy="157" r="7" fill="#AE1F83"/>
<line x1="147" y1="156.5" x2="284" y2="156.5" stroke="#B4B4B4" stroke-dasharray="3 3"/>
<circle cx="7" cy="192" r="7" fill="#DC385D"/>
<line x1="147" y1="191.5" x2="284" y2="191.5" stroke="#B4B4B4" stroke-dasharray="3 3"/>
<circle cx="7" cy="227" r="7" fill="#FF665B"/>
<line x1="147" y1="226.5" x2="284" y2="226.5" stroke="#B4B4B4" stroke-dasharray="3 3"/>
<circle cx="7" cy="262" r="7" fill="#FF9055"/>
<line x1="147" y1="261.5" x2="284" y2="261.5" stroke="#B4B4B4" stroke-dasharray="3 3"/>
<circle cx="7" cy="297" r="7" fill="#FFCF61"/>
<line x1="147" y1="296.5" x2="284" y2="296.5" stroke="#B4B4B4" stroke-dasharray="3 3"/>
</svg>
