<svg width="22" height="22" viewBox="0 0 22 22" fill="none" xmlns="http://www.w3.org/2000/svg">
<g clip-path="url(#clip0_55_4509)">
<path d="M15.5901 2.52961C15.1682 2.10796 14.5961 1.87109 13.9996 1.87109C13.4031 1.87109 12.831 2.10796 12.4091 2.52961L2.53011 12.4096C2.32118 12.6185 2.15544 12.8666 2.04237 13.1396C1.92929 13.4126 1.87109 13.7051 1.87109 14.0006C1.87109 14.2961 1.92929 14.5887 2.04237 14.8617C2.15544 15.1346 2.32118 15.3827 2.53011 15.5916L3.70211 16.7626C4.21211 17.2736 4.92911 17.1826 5.36211 16.9246C5.60097 16.7828 5.88026 16.7246 6.15588 16.7591C6.43151 16.7937 6.68777 16.9191 6.88419 17.1155C7.08062 17.312 7.20601 17.5682 7.24059 17.8438C7.27516 18.1195 7.21694 18.3988 7.07511 18.6376C6.81811 19.0706 6.72611 19.7876 7.23711 20.2976L8.41011 21.4696C8.61905 21.6785 8.86708 21.8443 9.14007 21.9574C9.41305 22.0704 9.70564 22.1286 10.0011 22.1286C10.2966 22.1286 10.5892 22.0704 10.8622 21.9574C11.1351 21.8443 11.3832 21.6785 11.5921 21.4696L21.4701 11.5916C21.679 11.3827 21.8448 11.1346 21.9579 10.8617C22.0709 10.5887 22.1291 10.2961 22.1291 10.0006C22.1291 9.70514 22.0709 9.41255 21.9579 9.13957C21.8448 8.86658 21.679 8.61855 21.4701 8.40961L20.2991 7.23761C19.7891 6.72761 19.0711 6.81761 18.6381 7.07561C18.3993 7.21744 18.12 7.27566 17.8443 7.24109C17.5687 7.20651 17.3125 7.08111 17.116 6.88469C16.9196 6.68827 16.7942 6.43201 16.7596 6.15638C16.7251 5.88076 16.7833 5.60147 16.9251 5.36261C17.1831 4.92961 17.2741 4.21261 16.7631 3.70261L15.5911 2.52961H15.5901Z" fill="white"/>
</g>
<defs>
<clipPath id="clip0_55_4509">
<rect width="22" height="22" fill="white"/>
</clipPath>
</defs>
</svg>
